# xmcd
#
# Track frame offsets: 
#        150
#        38268
#        65978
#        88722
#        115933
#        135815
#        154086
#        174722
#        212001
#        240023
#
# Disc length: 3474 seconds
#
# Revision: 0
# Processed by: cddbd v1.5.2PL0 Copyright (c) Steve Scherf et al.
# Submitted via: ExactAudioCopy v1.0b1
#
DISCID=770d900a
DTITLE=J.J. Cale - Live in the Gothic Theatre [disk 2]
DYEAR=2004
DGENRE=Blues
TTITLE0=Call Me The Breeze
TTITLE1=Cocaine
TTITLE2=Cajun Moon
TTITLE3=After Midnight
TTITLE4=Crazy Mama
TTITLE5=Magnolia
TTITLE6=Ridin' Home
TTITLE7=Bringing It Back
TTITLE8=Humdinger
TTITLE9=Keep Rollin' On'
EXTD=
EXTT0=
EXTT1=
EXTT2=
EXTT3=
EXTT4=
EXTT5=
EXTT6=
EXTT7=
EXTT8=
EXTT9=
PLAYORDER=
